# xmcd
#
# Track frame offsets: 
#        150
#        20757
#        47512
#        68198
#        90353
#        109884
#        132191
#        157205
#        178869
#        202099
#
# Disc length: 3076 seconds
#
# Revision: 5
# Processed by: cddbd v1.5.2PL0 Copyright (c) Steve Scherf et al.
# Submitted via: ExactAudioCopy v0.99pb5
#
DISCID=8d0c020a
DTITLE=Various Artist - Smooth Jazz Sampler
DYEAR=1999
DGENRE=Jazz
TTITLE0=Nelson Rangell - Nana's Song
TTITLE1=Chuck Loeb - Right Down Broadway
TTITLE2=Kim Waters - Fortunate
TTITLE3=Kevin Toney - How About That
TTITLE4=Walter Beasley - I Feel You
TTITLE5=Special EFX - Miami
TTITLE6=Fattburger - Spice
TTITLE7=Nester Torres - Treasures Of The Heart
TTITLE8=Walter Beasley - What's My Name
TTITLE9=Jon Lucien - Love Me
EXTD=YEAR: 1999
EXTT0=
EXTT1=
EXTT2=
EXTT3=
EXTT4=
EXTT5=
EXTT6=
EXTT7=
EXTT8=
EXTT9=
PLAYORDER=
